# xmcd
#
# Track frame offsets:
# 150
# 52813
# 161789
# 337797
# 354731
#
# Disc length: 4739 seconds
#
# Revision: 0
# Processed by: cddbd v1.5.2PL0 Copyright (c) Steve Scherf et al.
# Submitted via: Audion 3.0.2 (http://www.panic.com/audion/)
#
DISCID=3e128105
DTITLE=Pierre morency - Le cycle de rincage
DYEAR=1900
DGENRE=
TTITLE0=4e track
TTITLE1=5e track
TTITLE2=6e track
TTITLE3=7e track
TTITLE4=8e track
EXTD=
EXTT0=
EXTT1=
EXTT2=
EXTT3=
EXTT4=
PLAYORDER=
